<mxfile host="app.diagrams.net" agent="Mozilla/5.0 (Windows NT 10.0; Win64; x64) AppleWebKit/537.36 (KHTML, like Gecko) Chrome/131.0.0.0 Safari/537.36" version="25.0.1">
  <diagram name="Trang-1" id="xFn71TwYPeoNIIP8ymOD">
    <mxGraphModel dx="1008" dy="592" grid="1" gridSize="10" guides="1" tooltips="1" connect="1" arrows="1" fold="1" page="1" pageScale="1" pageWidth="827" pageHeight="1169" math="0" shadow="0">
      <root>
        <mxCell id="0" />
        <mxCell id="1" parent="0" />
        <mxCell id="mE02ICudLIaBgmsO_qBO-3" value="" style="edgeStyle=orthogonalEdgeStyle;rounded=0;orthogonalLoop=1;jettySize=auto;html=1;" edge="1" parent="1" source="mE02ICudLIaBgmsO_qBO-1" target="mE02ICudLIaBgmsO_qBO-2">
          <mxGeometry relative="1" as="geometry" />
        </mxCell>
        <mxCell id="mE02ICudLIaBgmsO_qBO-1" value="Start" style="ellipse;whiteSpace=wrap;html=1;" vertex="1" parent="1">
          <mxGeometry x="350" y="270" width="120" height="80" as="geometry" />
        </mxCell>
        <mxCell id="mE02ICudLIaBgmsO_qBO-7" value="" style="edgeStyle=orthogonalEdgeStyle;rounded=0;orthogonalLoop=1;jettySize=auto;html=1;" edge="1" parent="1" source="mE02ICudLIaBgmsO_qBO-2" target="mE02ICudLIaBgmsO_qBO-6">
          <mxGeometry relative="1" as="geometry" />
        </mxCell>
        <mxCell id="mE02ICudLIaBgmsO_qBO-2" value="Nháº­p N, kq = 1, i = 1" style="whiteSpace=wrap;html=1;" vertex="1" parent="1">
          <mxGeometry x="350" y="440" width="120" height="60" as="geometry" />
        </mxCell>
        <mxCell id="mE02ICudLIaBgmsO_qBO-10" value="" style="edgeStyle=orthogonalEdgeStyle;rounded=0;orthogonalLoop=1;jettySize=auto;html=1;" edge="1" parent="1" source="mE02ICudLIaBgmsO_qBO-6" target="mE02ICudLIaBgmsO_qBO-9">
          <mxGeometry relative="1" as="geometry" />
        </mxCell>
        <mxCell id="mE02ICudLIaBgmsO_qBO-11" value="False" style="edgeLabel;html=1;align=center;verticalAlign=middle;resizable=0;points=[];" vertex="1" connectable="0" parent="mE02ICudLIaBgmsO_qBO-10">
          <mxGeometry y="-1" relative="1" as="geometry">
            <mxPoint as="offset" />
          </mxGeometry>
        </mxCell>
        <mxCell id="mE02ICudLIaBgmsO_qBO-13" value="" style="edgeStyle=orthogonalEdgeStyle;rounded=0;orthogonalLoop=1;jettySize=auto;html=1;" edge="1" parent="1" source="mE02ICudLIaBgmsO_qBO-6" target="mE02ICudLIaBgmsO_qBO-12">
          <mxGeometry relative="1" as="geometry" />
        </mxCell>
        <mxCell id="mE02ICudLIaBgmsO_qBO-15" value="True" style="edgeLabel;html=1;align=center;verticalAlign=middle;resizable=0;points=[];" vertex="1" connectable="0" parent="mE02ICudLIaBgmsO_qBO-13">
          <mxGeometry x="-0.2074" relative="1" as="geometry">
            <mxPoint as="offset" />
          </mxGeometry>
        </mxCell>
        <mxCell id="mE02ICudLIaBgmsO_qBO-6" value="i &amp;lt;= N" style="rhombus;whiteSpace=wrap;html=1;" vertex="1" parent="1">
          <mxGeometry x="370" y="570" width="80" height="80" as="geometry" />
        </mxCell>
        <mxCell id="mE02ICudLIaBgmsO_qBO-17" value="" style="edgeStyle=orthogonalEdgeStyle;rounded=0;orthogonalLoop=1;jettySize=auto;html=1;" edge="1" parent="1" source="mE02ICudLIaBgmsO_qBO-9" target="mE02ICudLIaBgmsO_qBO-16">
          <mxGeometry relative="1" as="geometry" />
        </mxCell>
        <mxCell id="mE02ICudLIaBgmsO_qBO-9" value="in ra kq" style="whiteSpace=wrap;html=1;" vertex="1" parent="1">
          <mxGeometry x="190" y="580" width="120" height="60" as="geometry" />
        </mxCell>
        <mxCell id="mE02ICudLIaBgmsO_qBO-14" style="edgeStyle=orthogonalEdgeStyle;rounded=0;orthogonalLoop=1;jettySize=auto;html=1;entryX=1;entryY=0.5;entryDx=0;entryDy=0;" edge="1" parent="1" source="mE02ICudLIaBgmsO_qBO-12" target="mE02ICudLIaBgmsO_qBO-6">
          <mxGeometry relative="1" as="geometry">
            <Array as="points">
              <mxPoint x="500" y="770" />
              <mxPoint x="500" y="610" />
            </Array>
          </mxGeometry>
        </mxCell>
        <mxCell id="mE02ICudLIaBgmsO_qBO-12" value="kq = kq * i, i = i + 1" style="whiteSpace=wrap;html=1;" vertex="1" parent="1">
          <mxGeometry x="350" y="740" width="120" height="60" as="geometry" />
        </mxCell>
        <mxCell id="mE02ICudLIaBgmsO_qBO-16" value="End" style="ellipse;whiteSpace=wrap;html=1;" vertex="1" parent="1">
          <mxGeometry x="210" y="710" width="80" height="80" as="geometry" />
        </mxCell>
      </root>
    </mxGraphModel>
  </diagram>
</mxfile>
